<svg width="38" height="20" viewBox="0 0 38 20" fill="none" xmlns="http://www.w3.org/2000/svg">
<rect width="38" height="20" rx="10" fill="#DEDEDE" fill-opacity="0.7"/>
<path d="M11.748 11.0762H15.3984L14.291 7.83594C14.2363 7.67188 14.127 7.34831 13.9629 6.86523C13.8079 6.38216 13.694 6.03125 13.6211 5.8125H13.5391C13.4753 6.01302 13.3613 6.35026 13.1973 6.82422C13.0423 7.29818 12.9329 7.63542 12.8691 7.83594L11.748 11.0762ZM8.94531 15L12.8008 4.56836H14.3594L18.2012 15H16.7656L15.7812 12.1426H11.3789L10.3809 15H8.94531ZM19.5 15V4.56836H22.4121C23.9342 4.56836 25.1237 5.01497 25.9805 5.9082C26.8464 6.80143 27.2793 8.0957 27.2793 9.79102C27.2793 11.377 26.8691 12.6439 26.0488 13.5918C25.2285 14.5306 24.0072 15 22.3848 15H19.5ZM20.8262 13.8789H22.207C23.3646 13.8789 24.2715 13.5553 24.9277 12.9082C25.584 12.252 25.9121 11.2129 25.9121 9.79102C25.9121 7.06576 24.6862 5.70312 22.2344 5.70312H20.8262V13.8789Z" fill="white"/>
</svg>
