<svg width="25" height="19" viewBox="0 0 25 19" fill="none" xmlns="http://www.w3.org/2000/svg">
<path d="M22 12.5V11C22 9.6 20.4444 8.5 18.8889 8.5C17.3333 8.5 15.7778 9.6 15.7778 11V12.5C15.1111 12.5 14.4444 13.1 14.4444 13.7V17.2C14.4444 17.9 15.1111 18.5 15.7778 18.5H21.8889C22.6667 18.5 23.3333 17.9 23.3333 17.3V13.8C23.3333 13.1 22.6667 12.5 22 12.5ZM20.5556 12.5H17.2222V11C17.2222 10.2 18 9.7 18.8889 9.7C19.7778 9.7 20.5556 10.2 20.5556 11V12.5ZM15.5556 7.5C14.5556 8.2 13.8889 9.1 13.6667 10.2C13.2222 10.4 12.7778 10.5 12.2222 10.5C10.3333 10.5 8.88889 9.2 8.88889 7.5C8.88889 5.8 10.3333 4.5 12.2222 4.5C14.1111 4.5 15.5556 5.8 15.5556 7.5ZM12.2222 15C6.66667 15 1.88889 11.9 0 7.5C1.88889 3.1 6.66667 0 12.2222 0C17.7778 0 22.5556 3.1 24.4444 7.5C24.2222 8 23.8889 8.5 23.6667 9C22.7778 7.5 20.8889 6.5 18.8889 6.5C18.4444 6.5 18.1111 6.6 17.6667 6.6C17.2222 4.3 15 2.5 12.2222 2.5C9.11111 2.5 6.66667 4.7 6.66667 7.5C6.66667 10.3 9.11111 12.5 12.2222 12.5H12.5556C12.3333 12.9 12.2222 13.3 12.2222 13.7V15Z" fill="black"/>
</svg>
