<svg width="39" height="35" viewBox="0 0 39 35" fill="none" xmlns="http://www.w3.org/2000/svg">
<path d="M31.1111 28C28.9528 28 27.2222 29.5575 27.2222 31.5C27.2222 32.4283 27.6319 33.3185 28.3613 33.9749C29.0906 34.6312 30.0797 35 31.1111 35C32.1425 35 33.1317 34.6312 33.861 33.9749C34.5903 33.3185 35 32.4283 35 31.5C35 29.5575 33.25 28 31.1111 28ZM0 0V3.5H3.88889L10.8889 16.7825L8.24444 21.07C7.95278 21.56 7.77778 22.1375 7.77778 22.75C7.77778 23.6783 8.1875 24.5685 8.91681 25.2249C9.64611 25.8813 10.6353 26.25 11.6667 26.25H35V22.75H12.4833C12.3544 22.75 12.2308 22.7039 12.1396 22.6219C12.0484 22.5398 11.9972 22.4285 11.9972 22.3125C11.9972 22.225 12.0167 22.155 12.0556 22.1025L13.8056 19.25H28.2917C29.75 19.25 31.0333 18.515 31.6944 17.4475L38.6556 6.125C38.7917 5.845 38.8889 5.5475 38.8889 5.25C38.8889 4.78587 38.684 4.34075 38.3194 4.01256C37.9547 3.68437 37.4601 3.5 36.9444 3.5H8.18611L6.35833 0M11.6667 28C9.50833 28 7.77778 29.5575 7.77778 31.5C7.77778 32.4283 8.1875 33.3185 8.91681 33.9749C9.64611 34.6312 10.6353 35 11.6667 35C12.6981 35 13.6872 34.6312 14.4165 33.9749C15.1458 33.3185 15.5556 32.4283 15.5556 31.5C15.5556 29.5575 13.8056 28 11.6667 28Z" fill="white"/>
</svg>
