<svg width="229" height="86" viewBox="0 0 229 86" fill="none" xmlns="http://www.w3.org/2000/svg">
<rect width="203" height="85" rx="25" fill="#D9D9D9" fill-opacity="0.4"/>
<rect x="0.5" y="0.5" width="202" height="84" rx="24.5" stroke="white" stroke-opacity="0.6"/>
<path d="M70.4873 46.0996L71.5811 45.6758C72.055 46.6602 72.7933 47.1523 73.7959 47.1523C74.3975 47.1523 74.8988 46.9746 75.2998 46.6191C75.71 46.2546 75.915 45.7396 75.915 45.0742C75.915 44.4544 75.6917 43.9668 75.2451 43.6113C74.7985 43.2467 74.2471 43.0645 73.5908 43.0645C73.3356 43.0645 73.0439 43.0781 72.7158 43.1055V42.0117C72.9255 42.0299 73.1989 42.0391 73.5361 42.0391C74.1012 42.0391 74.5706 41.875 74.9443 41.5469C75.318 41.2096 75.5049 40.7493 75.5049 40.166C75.5049 39.6556 75.3408 39.2363 75.0127 38.9082C74.6846 38.571 74.2607 38.4023 73.7412 38.4023C72.8936 38.4023 72.2646 38.9219 71.8545 39.9609L70.7607 39.6055C70.9704 38.931 71.3304 38.3841 71.8408 37.9648C72.3604 37.5365 73.0166 37.3223 73.8096 37.3223C74.7484 37.3223 75.4912 37.582 76.0381 38.1016C76.5941 38.612 76.8721 39.2591 76.8721 40.043C76.8721 40.6263 76.7171 41.1322 76.4072 41.5605C76.0973 41.9798 75.7236 42.2852 75.2861 42.4766C75.8148 42.6315 76.2796 42.9277 76.6807 43.3652C77.0817 43.8027 77.2822 44.3724 77.2822 45.0742C77.2822 46.0768 76.9632 46.8561 76.3252 47.4121C75.6963 47.9681 74.8577 48.2461 73.8096 48.2461C72.9893 48.2461 72.2874 48.041 71.7041 47.6309C71.1208 47.2116 70.7152 46.7012 70.4873 46.0996ZM78.5127 48.123V47.0156H84.0635V44.5H85.3896V47.0156H90.8721V48.123H78.5127ZM81.999 38.0469V36.9941H87.4814V38.0469H81.999ZM79.415 44.1582C80.4541 43.8574 81.4476 43.3971 82.3955 42.7773C83.3434 42.1576 83.8538 41.556 83.9268 40.9727L83.9404 40.6309H79.9893V39.5234H89.4775V40.6309H85.54V40.9727C85.5947 41.3646 85.8818 41.7839 86.4014 42.2305C86.93 42.6771 87.5179 43.0645 88.165 43.3926C88.8122 43.7116 89.4365 43.9622 90.0381 44.1445L89.3818 45.0742C88.6071 44.8555 87.7321 44.4635 86.7568 43.8984C85.7907 43.3242 85.1208 42.7637 84.7471 42.2168C84.3734 42.7637 83.7399 43.3105 82.8467 43.8574C81.9535 44.4043 81.0283 44.819 80.0713 45.1016L79.415 44.1582ZM94.6045 48.8477V44.9375H95.8896V47.7129H103.231V48.8477H94.6045ZM101.495 45.8672V36.5703H102.78V40.4531H104.517V41.6016H102.78V45.8672H101.495ZM92.9639 43.5293V37.418H99.0889V43.5293H92.9639ZM94.2217 42.4902H97.8311V38.457H94.2217V42.4902ZM115.905 49.2305V36.5703H117.149V49.2305H115.905ZM111.134 42.6953V41.4785H113.239V36.9258H114.415V48.6699H113.239V42.6953H111.134ZM106.362 42.1758C106.362 40.7357 106.59 39.5736 107.046 38.6895C107.502 37.7962 108.167 37.3496 109.042 37.3496C109.899 37.3496 110.555 37.7917 111.011 38.6758C111.476 39.5599 111.708 40.7266 111.708 42.1758C111.708 43.6159 111.48 44.7826 111.024 45.6758C110.569 46.5599 109.908 47.002 109.042 47.002C108.158 47.002 107.488 46.5599 107.032 45.6758C106.586 44.7917 106.362 43.625 106.362 42.1758ZM107.647 42.1758C107.647 43.2604 107.757 44.1445 107.976 44.8281C108.194 45.5117 108.55 45.8535 109.042 45.8535C109.379 45.8535 109.653 45.6758 109.862 45.3203C110.081 44.9557 110.227 44.5137 110.3 43.9941C110.382 43.4655 110.423 42.8594 110.423 42.1758C110.423 39.7148 109.963 38.4844 109.042 38.4844C108.787 38.4844 108.563 38.5892 108.372 38.7988C108.181 38.9993 108.035 39.2819 107.935 39.6465C107.834 40.002 107.761 40.3893 107.716 40.8086C107.67 41.2188 107.647 41.6745 107.647 42.1758ZM125.284 49.0254V44.7188H134.089V49.0254H125.284ZM126.556 47.9453H132.817V45.7988H126.556V47.9453ZM132.872 44.1035V36.5703H134.089V44.1035H132.872ZM128.278 40.877V39.7559H130.384V36.7344H131.532V43.9121H130.384V40.877H128.278ZM123.726 43.2012V37.3906H128.771V43.2012H123.726ZM124.97 42.1895H127.526V38.4023H124.97V42.1895ZM142.894 42.4629V41.2461H146.339V36.5703H147.638V49.2305H146.339V42.4629H142.894ZM137.452 46.8105V37.459H138.696V40.8496H142.224V37.459H143.481V46.8105H137.452ZM138.696 45.6484H142.224V42.0391H138.696V45.6484ZM153.817 47.0703V45.9766H155.308C158.707 45.9766 161.278 45.8763 163.019 45.6758V46.7559C161.05 46.9655 158.475 47.0703 155.294 47.0703H153.817ZM157.755 46.3867V42.7363H159.067V46.3867H157.755ZM163.442 49.2305V36.5703H164.755V49.2305H163.442ZM155.034 43.1875V37.6094H161.761V38.7168H156.306V42.0801H161.815V43.1875H155.034ZM176.731 49.2305V36.5703H178.044V49.2305H176.731ZM167.544 46.6191C169.121 45.6257 170.379 44.4362 171.317 43.0508C172.256 41.6562 172.735 40.2936 172.753 38.9629H168.228V37.7871H174.106C174.106 41.7246 172.22 44.9466 168.446 47.4531L167.544 46.6191Z" fill="#282828"/>
<path d="M37.6667 53.7467C37.6667 55.016 37.9 56.2128 38.3278 57.3733C38.1139 57.3733 37.9 57.3733 37.6667 57.3733C31.2306 57.3733 26 52.4955 26 46.4933C26 39.24 37.6667 27 37.6667 27C37.6667 27 46.0472 35.7947 48.5944 42.8667C42.5278 43.2656 37.6667 47.9803 37.6667 53.7467ZM51.2778 51.9333V46.4933H47.3889V51.9333H41.5556V55.56H47.3889V61H51.2778V55.56H57.1111V51.9333H51.2778Z" fill="white" fill-opacity="0.5"/>
</svg>
