<svg width="45" height="45" viewBox="0 0 45 45" fill="none" xmlns="http://www.w3.org/2000/svg">
<path d="M22.5 38.7C16.875 38.7 11.9025 35.82 9 31.5C9.0675 27 18 24.525 22.5 24.525C27 24.525 35.9325 27 36 31.5C33.0975 35.82 28.125 38.7 22.5 38.7ZM22.5 6.75C24.2902 6.75 26.0071 7.46116 27.273 8.72703C28.5388 9.9929 29.25 11.7098 29.25 13.5C29.25 15.2902 28.5388 17.0071 27.273 18.273C26.0071 19.5388 24.2902 20.25 22.5 20.25C20.7098 20.25 18.9929 19.5388 17.727 18.273C16.4612 17.0071 15.75 15.2902 15.75 13.5C15.75 11.7098 16.4612 9.9929 17.727 8.72703C18.9929 7.46116 20.7098 6.75 22.5 6.75ZM22.5 0C19.5453 0 16.6194 0.58198 13.8896 1.71271C11.1598 2.84344 8.67942 4.50078 6.5901 6.5901C2.37053 10.8097 0 16.5326 0 22.5C0 28.4674 2.37053 34.1903 6.5901 38.4099C8.67942 40.4992 11.1598 42.1566 13.8896 43.2873C16.6194 44.418 19.5453 45 22.5 45C28.4674 45 34.1903 42.6295 38.4099 38.4099C42.6295 34.1903 45 28.4674 45 22.5C45 10.0575 34.875 0 22.5 0Z" fill="#04BCFF"/>
</svg>
