<svg width="52" height="54" viewBox="0 0 52 54" fill="none" xmlns="http://www.w3.org/2000/svg">
<path d="M13.913 16.2627L18.2112 18.7635L26.1118 5.03409L31.7019 14.7622L25.2422 18.5135L38.8075 22.1647L42.4596 8.51022L36 12.2614L30.4099 2.50827C29.0435 0.107489 25.9876 -0.71778 23.6273 0.682675C22.9565 1.0578 22.3851 1.60798 21.9627 2.25819M20.9441 46.4976V41.4959H5.19255L10.7578 31.7428L17.2174 35.494L13.5901 21.8396L0 25.4907L6.45963 29.242L0.869565 38.9951C-0.496895 41.3959 0.322982 44.4469 2.68323 45.8223C3.35404 46.2225 4.09938 46.4225 4.89441 46.4976M43.4534 25.2407L39.1304 27.7415L47.0311 41.4959H35.8509V33.9935L25.913 43.9967L35.8509 54V46.4976H47.0311C49.7888 46.4976 52 44.2718 52 41.4959C52 40.7207 51.8012 39.9454 51.4534 39.2702L43.4534 25.2407Z" fill="#04BCFF"/>
</svg>
