<svg width="40" height="38" viewBox="0 0 40 38" fill="none" xmlns="http://www.w3.org/2000/svg">
<path d="M33.4038 11.25H6.46394L5.52691 3.75H34.3621M19.9445 31.875C18.2501 31.875 16.625 31.2824 15.4269 30.2275C14.2287 29.1726 13.5556 27.7418 13.5556 26.25C13.5556 22.5 19.9445 16.125 19.9445 16.125C19.9445 16.125 26.3334 22.5 26.3334 26.25C26.3334 27.7418 25.6603 29.1726 24.4621 30.2275C23.264 31.2824 21.6389 31.875 19.9445 31.875ZM0.777832 0L5.03709 34.1812C5.31394 36.0562 7.10283 37.5 9.29635 37.5H30.5926C32.7223 37.5 34.5751 36.0562 34.8519 34.1812L39.1112 0H0.777832Z" fill="#04BCFF"/>
</svg>
