<svg width="21" height="18" viewBox="0 0 21 18" fill="none" xmlns="http://www.w3.org/2000/svg">
<path d="M7.56523 0.478271C9.56893 0.478271 11.4906 1.25412 12.9074 2.63513C14.3242 4.01614 15.1202 5.8892 15.1202 7.84225C15.1202 9.66625 14.4344 11.343 13.307 12.6345L13.6208 12.9404H14.539L20.3506 18.605L18.6071 20.3044L12.7956 14.6398V13.7448L12.4818 13.4389C11.1567 14.5378 9.43654 15.2062 7.56523 15.2062C5.56152 15.2062 3.63989 14.4304 2.22305 13.0494C0.806222 11.6683 0.0102539 9.79529 0.0102539 7.84225C0.0102539 5.8892 0.806222 4.01614 2.22305 2.63513C3.63989 1.25412 5.56152 0.478271 7.56523 0.478271M7.56523 2.74411C4.65947 2.74411 2.33486 5.00995 2.33486 7.84225C2.33486 10.6745 4.65947 12.9404 7.56523 12.9404C10.471 12.9404 12.7956 10.6745 12.7956 7.84225C12.7956 5.00995 10.471 2.74411 7.56523 2.74411Z" fill="#A9A9A9"/>
</svg>
