<svg width="148" height="53" viewBox="0 0 148 53" fill="none" xmlns="http://www.w3.org/2000/svg">
<rect width="148" height="52" rx="25" fill="#D9D9D9" fill-opacity="0.4"/>
<rect x="0.5" y="0.5" width="147" height="51" rx="24.5" stroke="white" stroke-opacity="0.6"/>
<path d="M36.1898 31.8467V19.1866H37.5023V31.8467H36.1898ZM27.0023 29.2354C28.5792 28.2419 29.837 27.0525 30.7758 25.6671C31.7146 24.2725 32.1931 22.9099 32.2113 21.5792H27.6859V20.4034H33.5648C33.5648 24.3409 31.6781 27.5629 27.9047 30.0694L27.0023 29.2354ZM42.4516 29.7276V28.7159H51.434V32.0245H50.1625V29.7276H42.4516ZM40.5785 27.7178V26.7335H42.0824C45.4001 26.7335 47.9613 26.6332 49.766 26.4327V27.376C47.6697 27.6039 45.1039 27.7178 42.0688 27.7178H40.5785ZM44.6801 27.1573V25.2432H45.9106V27.1573H44.6801ZM50.1488 28.128V19.1866H51.4203V28.128H50.1488ZM43.0395 20.2393V19.2823H47.6059V20.2393H43.0395ZM41.2895 21.962V21.0186H48.9457V21.962H41.2895ZM41.8227 24.0948C41.8227 23.7393 41.9958 23.4385 42.3422 23.1924C42.6885 22.9464 43.1124 22.7777 43.6137 22.6866C44.115 22.5863 44.6801 22.5362 45.309 22.5362C45.9288 22.5362 46.4893 22.5863 46.9906 22.6866C47.4919 22.7777 47.9158 22.9464 48.2621 23.1924C48.6176 23.4385 48.7953 23.7393 48.7953 24.0948C48.7953 24.6143 48.4581 25.0108 47.7836 25.2842C47.1091 25.5486 46.2843 25.6807 45.309 25.6807C44.6892 25.6807 44.1241 25.6306 43.6137 25.5303C43.1033 25.421 42.6749 25.2432 42.3285 24.9971C41.9913 24.751 41.8227 24.4503 41.8227 24.0948ZM43.1762 24.0948C43.1762 24.3318 43.3721 24.5095 43.7641 24.628C44.1651 24.7465 44.6801 24.8057 45.309 24.8057C45.9197 24.8057 46.4255 24.751 46.8266 24.6417C47.2367 24.5232 47.4418 24.3409 47.4418 24.0948C47.4418 23.6299 46.7309 23.3975 45.309 23.3975C43.8871 23.3975 43.1762 23.6299 43.1762 24.0948ZM56.4926 31.4639V27.5674H57.7777V30.3292H65.4477V31.4639H56.4926ZM61.1547 23.8214V22.6729H63.7523V19.1866H65.0375V28.4971H63.7523V23.8214H61.1547ZM54.059 26.3643C54.3233 26.2549 54.5968 26.1182 54.8793 25.9542C55.171 25.781 55.4809 25.5622 55.809 25.2979C56.1371 25.0336 56.4288 24.751 56.684 24.4503C56.9483 24.1495 57.1671 23.8031 57.3402 23.4112C57.5225 23.0193 57.6182 22.6228 57.6273 22.2217V21.1006H54.7836V19.9932H61.7973V21.1006H58.9945V22.1807C59.0037 22.6182 59.1221 23.0557 59.35 23.4932C59.5779 23.9216 59.865 24.3044 60.2113 24.6417C60.5668 24.9698 60.9132 25.2569 61.2504 25.503C61.5968 25.74 61.934 25.9405 62.2621 26.1046L61.5512 26.9385C60.9678 26.6651 60.3526 26.2549 59.7055 25.7081C59.0675 25.1521 58.6117 24.6325 58.3383 24.1495C58.0466 24.6781 57.5544 25.2523 56.8617 25.8721C56.169 26.4828 55.49 26.9385 54.8246 27.2393L54.059 26.3643ZM79.9945 31.8467V19.1866H81.2797V24.4092H83.3305V25.6534H81.2797V31.8467H79.9945ZM71.6547 29.4131V20.0753H72.9125V23.4659H76.3578V20.0753H77.6156V29.4131H71.6547ZM72.9125 28.251H76.3578V24.6417H72.9125V28.251ZM84.3969 30.6026V29.4952H90.0023V26.8155H91.3285V29.4952H96.7563V30.6026H84.3969ZM86.2563 27.335V23.1241H93.7211V21.1143H86.1742V19.9796H95.0063V24.1905H87.5277V26.2003H95.225V27.335H86.2563ZM107.106 31.8467V19.1866H108.405V24.546H110.496V25.7901H108.405V31.8467H107.106ZM98.2738 29.2217C99.8233 28.2191 101.049 27.0251 101.952 25.6397C102.854 24.2452 103.314 22.8871 103.332 21.5655H98.9301V20.4034H104.686C104.686 24.3135 102.849 27.531 99.1762 30.0557L98.2738 29.2217ZM121.311 31.8467V19.1866H122.623V31.8467H121.311ZM112.123 29.2354C113.7 28.2419 114.958 27.0525 115.897 25.6671C116.836 24.2725 117.314 22.9099 117.332 21.5792H112.807V20.4034H118.686C118.686 24.3409 116.799 27.5629 113.026 30.0694L112.123 29.2354Z" fill="#282828" fill-opacity="0.6"/>
</svg>
