<svg width="25" height="15" viewBox="0 0 25 15" fill="none" xmlns="http://www.w3.org/2000/svg">
<path d="M12.2222 4.5C11.3382 4.5 10.4903 4.81607 9.8652 5.37868C9.24008 5.94129 8.88889 6.70435 8.88889 7.5C8.88889 8.29565 9.24008 9.05871 9.8652 9.62132C10.4903 10.1839 11.3382 10.5 12.2222 10.5C13.1063 10.5 13.9541 10.1839 14.5792 9.62132C15.2044 9.05871 15.5556 8.29565 15.5556 7.5C15.5556 6.70435 15.2044 5.94129 14.5792 5.37868C13.9541 4.81607 13.1063 4.5 12.2222 4.5ZM12.2222 12.5C10.7488 12.5 9.33572 11.9732 8.29385 11.0355C7.25198 10.0979 6.66667 8.82608 6.66667 7.5C6.66667 6.17392 7.25198 4.90215 8.29385 3.96447C9.33572 3.02678 10.7488 2.5 12.2222 2.5C13.6956 2.5 15.1087 3.02678 16.1506 3.96447C17.1925 4.90215 17.7778 6.17392 17.7778 7.5C17.7778 8.82608 17.1925 10.0979 16.1506 11.0355C15.1087 11.9732 13.6956 12.5 12.2222 12.5ZM12.2222 0C6.66667 0 1.92222 3.11 0 7.5C1.92222 11.89 6.66667 15 12.2222 15C17.7778 15 22.5222 11.89 24.4444 7.5C22.5222 3.11 17.7778 0 12.2222 0Z" fill="black"/>
</svg>
